<svg width="1359" height="785" viewBox="0 0 1359 785" xmlns="http://www.w3.org/2000/svg"><title>stars</title><path d="M779.188 86.69c-7.515.108-7.495 1.14-7.658 12.383-.163-11.243-.142-12.275-7.658-12.384 7.516-.11 7.495-1.143 7.66-12.387.16 11.244.14 12.276 7.656 12.385m-384-57.998c-7.515.108-7.495 1.14-7.657 12.383-.16-11.243-.14-12.275-7.656-12.384 7.514-.11 7.495-1.143 7.658-12.387.163 11.244.143 12.276 7.66 12.385m848.996-15.998c-7.516.108-7.495 1.14-7.658 12.383-.162-11.243-.142-12.275-7.658-12.384 7.515-.11 7.495-1.143 7.66-12.387.162 11.244.14 12.276 7.657 12.385M646.66 84.47c-7.515.11-7.494 1.142-7.657 12.385-.163-11.243-.143-12.275-7.658-12.384 7.515-.107 7.495-1.14 7.658-12.383.163 11.244.142 12.276 7.658 12.385m-397.48 550.47c-7.516.11-7.495 1.14-7.658 12.385-.163-11.244-.143-12.276-7.658-12.385 7.515-.11 7.495-1.14 7.658-12.385.163 11.244.142 12.276 7.658 12.385m586.008-333.254c-7.515.11-7.495 1.14-7.658 12.384-.163-11.243-.142-12.275-7.658-12.384 7.516-.11 7.495-1.14 7.66-12.385.16 11.244.14 12.276 7.656 12.385m146 50c-7.515.11-7.495 1.14-7.658 12.384-.163-11.243-.142-12.275-7.658-12.384 7.516-.11 7.495-1.14 7.66-12.385.16 11.244.14 12.276 7.656 12.385m304 156c-7.516.11-7.495 1.14-7.658 12.385-.162-11.244-.142-12.276-7.658-12.385 7.515-.11 7.495-1.14 7.66-12.385.162 11.244.14 12.276 7.657 12.385m-760.002 9c-7.515.11-7.495 1.14-7.658 12.385-.163-11.244-.142-12.276-7.657-12.385 7.515-.11 7.494-1.14 7.657-12.385.163 11.244.143 12.276 7.66 12.385m-405-48c-7.517.11-7.496 1.14-7.66 12.385-.162-11.244-.142-12.276-7.657-12.385 7.514-.11 7.495-1.14 7.657-12.385.163 11.244.142 12.276 7.66 12.385M15.316 696.765c-7.516.11-7.495 1.142-7.658 12.385-.163-11.243-.143-12.275-7.658-12.385 7.515-.108 7.495-1.14 7.658-12.385.163 11.245.142 12.277 7.658 12.385m1322.93-373.48c-7.515.11-7.494 1.14-7.657 12.385-.165-11.244-.145-12.276-7.66-12.385 7.515-.11 7.495-1.14 7.66-12.385.16 11.244.14 12.276 7.656 12.385m-386.98-202.49c-7.515.11-7.494 1.14-7.657 12.385-.165-11.244-.145-12.276-7.66-12.385 7.515-.11 7.495-1.14 7.66-12.385.16 11.244.14 12.276 7.656 12.385m407.98-89.995c-7.516.108-7.495 1.14-7.658 12.384-.163-11.244-.143-12.276-7.658-12.385 7.515-.11 7.495-1.143 7.658-12.387.163 11.244.142 12.276 7.658 12.385M607.588 255.133c-4.907.07-4.894.745-5 8.085-.106-7.34-.093-8.014-5-8.085 4.907-.07 4.894-.745 5-8.086.106 7.34.093 8.015 5 8.086m451 101c-4.906.07-4.894.745-5 8.085-.106-7.34-.094-8.014-5-8.085 4.906-.07 4.894-.745 5-8.086.106 7.34.094 8.015 5 8.086m293-51c-4.906.07-4.894.745-5 8.085-.106-7.34-.094-8.014-5-8.085 4.906-.07 4.894-.745 5-8.086.106 7.34.094 8.015 5 8.086m-1207 119c-4.906.07-4.894.745-5 8.085-.106-7.34-.094-8.014-5-8.085 4.906-.07 4.894-.745 5-8.086.106 7.34.094 8.015 5 8.086M761.71 672.886c-7.515.11-7.493 1.14-7.657 12.385-.162-11.242-.143-12.274-7.658-12.383 7.515-.11 7.496-1.14 7.658-12.385.164 11.245.142 12.277 7.658 12.386m-40.4-500.978c4.167-.06 4.155-.632 4.245-6.866.09 6.234.078 6.805 4.246 6.867-4.166.063-4.154.635-4.244 6.87-.09-6.235-.078-6.807-4.246-6.868m121.032 164.22c4.168-.06 4.156-.632 4.246-6.866.09 6.234.078 6.805 4.246 6.867-4.168.06-4.156.633-4.246 6.867-.09-6.234-.078-6.806-4.246-6.867M1082.91 40.245c4.17-.062 4.157-.633 4.247-6.867.09 6.234.078 6.805 4.246 6.867-4.168.06-4.156.633-4.246 6.867-.09-6.234-.078-6.806-4.246-6.867m-625.468 7.5c4.168-.063 4.156-.634 4.246-6.868.09 6.234.078 6.805 4.246 6.867-4.168.06-4.156.633-4.246 6.867-.09-6.232-.078-6.804-4.246-6.865m65.998 154.49c4.167-.062 4.155-.632 4.245-6.866.09 6.232.078 6.802 4.246 6.865-4.166.06-4.154.633-4.244 6.867-.09-6.234-.078-6.806-4.246-6.867m602.97 113.995c4.167-.062 4.155-.632 4.245-6.867.09 6.235.078 6.805 4.246 6.868-4.166.06-4.154.634-4.244 6.87-.09-6.236-.078-6.808-4.246-6.87m-622.068 31.903c4.168-.062 4.156-.633 4.246-6.867.09 6.234.078 6.805 4.246 6.867-4.168.06-4.156.633-4.246 6.867-.09-6.234-.078-6.806-4.246-6.867m598 149c4.168-.062 4.156-.633 4.246-6.867.09 6.234.078 6.805 4.246 6.867-4.168.06-4.156.633-4.246 6.867-.09-6.234-.078-6.806-4.246-6.867m-215 82c4.168-.062 4.156-.633 4.246-6.867.09 6.234.078 6.805 4.246 6.867-4.168.06-4.156.633-4.246 6.867-.09-6.234-.078-6.806-4.246-6.867m-829-208.867c4.168-.062 4.156-.633 4.246-6.867.09 6.232.078 6.803 4.246 6.865-4.168.06-4.156.633-4.246 6.867-.09-6.234-.078-6.806-4.246-6.867m176 407.868c4.168-.062 4.156-.633 4.246-6.867.09 6.234.078 6.805 4.246 6.867-4.168.06-4.156.633-4.246 6.867-.09-6.234-.078-6.806-4.246-6.867" fill="#FFF" fill-rule="evenodd"/></svg>